<mxfile host="app.diagrams.net" agent="Mozilla/5.0 (Windows NT 10.0; Win64; x64) AppleWebKit/537.36 (KHTML, like Gecko) Chrome/128.0.0.0 YaBrowser/24.10.0.0 Safari/537.36" version="24.8.3">
  <diagram id="R2lEEEUBdFMjLlhIrx00" name="Page-1">
    <mxGraphModel dx="1355" dy="653" grid="1" gridSize="10" guides="1" tooltips="1" connect="1" arrows="1" fold="1" page="1" pageScale="1" pageWidth="850" pageHeight="1100" math="0" shadow="0" extFonts="Permanent Marker^https://fonts.googleapis.com/css?family=Permanent+Marker">
      <root>
        <mxCell id="0" />
        <mxCell id="1" parent="0" />
        <mxCell id="zLX-Usu_xkGBaeQVLR4N-1" value="Ads" style="swimlane;fontStyle=0;childLayout=stackLayout;horizontal=1;startSize=30;horizontalStack=0;resizeParent=1;resizeParentMax=0;resizeLast=0;collapsible=1;marginBottom=0;whiteSpace=wrap;html=1;" vertex="1" parent="1">
          <mxGeometry x="180" y="130" width="140" height="150" as="geometry" />
        </mxCell>
        <mxCell id="zLX-Usu_xkGBaeQVLR4N-2" value="&lt;span style=&quot;white-space-collapse: preserve;&quot; data-src-align=&quot;0:9&quot; class=&quot;EzKURWReUAB5oZgtQNkl&quot;&gt;heading&lt;/span&gt;" style="text;strokeColor=none;fillColor=none;align=left;verticalAlign=middle;spacingLeft=4;spacingRight=4;overflow=hidden;points=[[0,0.5],[1,0.5]];portConstraint=eastwest;rotatable=0;whiteSpace=wrap;html=1;" vertex="1" parent="zLX-Usu_xkGBaeQVLR4N-1">
          <mxGeometry y="30" width="140" height="30" as="geometry" />
        </mxCell>
        <object label="texst" id="zLX-Usu_xkGBaeQVLR4N-3">
          <mxCell style="text;strokeColor=none;fillColor=none;align=left;verticalAlign=middle;spacingLeft=4;spacingRight=4;overflow=hidden;points=[[0,0.5],[1,0.5]];portConstraint=eastwest;rotatable=0;whiteSpace=wrap;html=1;" vertex="1" parent="zLX-Usu_xkGBaeQVLR4N-1">
            <mxGeometry y="60" width="140" height="30" as="geometry" />
          </mxCell>
        </object>
        <mxCell id="zLX-Usu_xkGBaeQVLR4N-4" value="response" style="text;strokeColor=none;fillColor=none;align=left;verticalAlign=middle;spacingLeft=4;spacingRight=4;overflow=hidden;points=[[0,0.5],[1,0.5]];portConstraint=eastwest;rotatable=0;whiteSpace=wrap;html=1;" vertex="1" parent="zLX-Usu_xkGBaeQVLR4N-1">
          <mxGeometry y="90" width="140" height="30" as="geometry" />
        </mxCell>
        <mxCell id="zLX-Usu_xkGBaeQVLR4N-21" value="&lt;span style=&quot;white-space-collapse: preserve;&quot; data-src-align=&quot;0:5&quot; class=&quot;EzKURWReUAB5oZgtQNkl&quot;&gt;author&lt;/span&gt;&lt;div&gt;&lt;span style=&quot;white-space-collapse: preserve;&quot; data-src-align=&quot;0:5&quot; class=&quot;EzKURWReUAB5oZgtQNkl&quot;&gt;&lt;br&gt;&lt;/span&gt;&lt;/div&gt;" style="text;strokeColor=none;fillColor=none;align=left;verticalAlign=middle;spacingLeft=4;spacingRight=4;overflow=hidden;points=[[0,0.5],[1,0.5]];portConstraint=eastwest;rotatable=0;whiteSpace=wrap;html=1;" vertex="1" parent="zLX-Usu_xkGBaeQVLR4N-1">
          <mxGeometry y="120" width="140" height="30" as="geometry" />
        </mxCell>
        <mxCell id="zLX-Usu_xkGBaeQVLR4N-5" value="&lt;span style=&quot;white-space-collapse: preserve;&quot; data-src-align=&quot;0:6&quot; class=&quot;EzKURWReUAB5oZgtQNkl&quot;&gt;Response&lt;/span&gt;" style="swimlane;fontStyle=0;childLayout=stackLayout;horizontal=1;startSize=30;horizontalStack=0;resizeParent=1;resizeParentMax=0;resizeLast=0;collapsible=1;marginBottom=0;whiteSpace=wrap;html=1;" vertex="1" parent="1">
          <mxGeometry x="520" y="130" width="140" height="90" as="geometry" />
        </mxCell>
        <mxCell id="zLX-Usu_xkGBaeQVLR4N-6" value="&lt;span style=&quot;white-space-collapse: preserve;&quot; data-src-align=&quot;0:5&quot; class=&quot;EzKURWReUAB5oZgtQNkl&quot;&gt;author&lt;/span&gt;&lt;div&gt;&lt;span style=&quot;white-space-collapse: preserve;&quot; data-src-align=&quot;0:5&quot; class=&quot;EzKURWReUAB5oZgtQNkl&quot;&gt;&lt;br&gt;&lt;/span&gt;&lt;/div&gt;" style="text;strokeColor=none;fillColor=none;align=left;verticalAlign=middle;spacingLeft=4;spacingRight=4;overflow=hidden;points=[[0,0.5],[1,0.5]];portConstraint=eastwest;rotatable=0;whiteSpace=wrap;html=1;" vertex="1" parent="zLX-Usu_xkGBaeQVLR4N-5">
          <mxGeometry y="30" width="140" height="30" as="geometry" />
        </mxCell>
        <mxCell id="zLX-Usu_xkGBaeQVLR4N-7" value="texst" style="text;strokeColor=none;fillColor=none;align=left;verticalAlign=middle;spacingLeft=4;spacingRight=4;overflow=hidden;points=[[0,0.5],[1,0.5]];portConstraint=eastwest;rotatable=0;whiteSpace=wrap;html=1;" vertex="1" parent="zLX-Usu_xkGBaeQVLR4N-5">
          <mxGeometry y="60" width="140" height="30" as="geometry" />
        </mxCell>
        <mxCell id="zLX-Usu_xkGBaeQVLR4N-9" value="User" style="swimlane;fontStyle=0;childLayout=stackLayout;horizontal=1;startSize=30;horizontalStack=0;resizeParent=1;resizeParentMax=0;resizeLast=0;collapsible=1;marginBottom=0;whiteSpace=wrap;html=1;" vertex="1" parent="1">
          <mxGeometry x="370" y="470" width="140" height="120" as="geometry" />
        </mxCell>
        <mxCell id="zLX-Usu_xkGBaeQVLR4N-10" value="login&lt;span style=&quot;white-space: pre;&quot;&gt;&#x9;&lt;/span&gt;&lt;span style=&quot;white-space: pre;&quot;&gt;&#x9;&lt;/span&gt;" style="text;strokeColor=none;fillColor=none;align=left;verticalAlign=middle;spacingLeft=4;spacingRight=4;overflow=hidden;points=[[0,0.5],[1,0.5]];portConstraint=eastwest;rotatable=0;whiteSpace=wrap;html=1;" vertex="1" parent="zLX-Usu_xkGBaeQVLR4N-9">
          <mxGeometry y="30" width="140" height="30" as="geometry" />
        </mxCell>
        <mxCell id="zLX-Usu_xkGBaeQVLR4N-11" value="password" style="text;strokeColor=none;fillColor=none;align=left;verticalAlign=middle;spacingLeft=4;spacingRight=4;overflow=hidden;points=[[0,0.5],[1,0.5]];portConstraint=eastwest;rotatable=0;whiteSpace=wrap;html=1;" vertex="1" parent="zLX-Usu_xkGBaeQVLR4N-9">
          <mxGeometry y="60" width="140" height="30" as="geometry" />
        </mxCell>
        <mxCell id="zLX-Usu_xkGBaeQVLR4N-12" value="email" style="text;strokeColor=none;fillColor=none;align=left;verticalAlign=middle;spacingLeft=4;spacingRight=4;overflow=hidden;points=[[0,0.5],[1,0.5]];portConstraint=eastwest;rotatable=0;whiteSpace=wrap;html=1;" vertex="1" parent="zLX-Usu_xkGBaeQVLR4N-9">
          <mxGeometry y="90" width="140" height="30" as="geometry" />
        </mxCell>
        <mxCell id="zLX-Usu_xkGBaeQVLR4N-23" value="" style="endArrow=classic;html=1;rounded=0;exitX=0.018;exitY=0.1;exitDx=0;exitDy=0;exitPerimeter=0;entryX=1;entryY=0.5;entryDx=0;entryDy=0;" edge="1" parent="1" source="zLX-Usu_xkGBaeQVLR4N-9" target="zLX-Usu_xkGBaeQVLR4N-21">
          <mxGeometry width="50" height="50" relative="1" as="geometry">
            <mxPoint x="400" y="430" as="sourcePoint" />
            <mxPoint x="390" y="230" as="targetPoint" />
          </mxGeometry>
        </mxCell>
      </root>
    </mxGraphModel>
  </diagram>
</mxfile>
